<?xml version="1.0" standalone="no"?>
<!DOCTYPE svg PUBLIC "-//W3C//DTD SVG 20010904//EN"
 "http://www.w3.org/TR/2001/REC-SVG-20010904/DTD/svg10.dtd">
<svg version="1.0" xmlns="http://www.w3.org/2000/svg"
 width="30px" height="30px" viewBox="0 0 612.000000 612.000000"
 preserveAspectRatio="xMidYMid meet">

<g transform="translate(0.000000,612.000000) scale(0.100000,-0.100000)"
fill="#489EE2FF" stroke="none">
<path d="M2930 5344 c-349 -29 -609 -99 -883 -235 -988 -493 -1486 -1613
-1187 -2670 89 -314 267 -646 468 -873 652 -736 1650 -985 2559 -637 728 278
1284 949 1422 1716 118 656 -48 1319 -460 1835 -114 143 -263 292 -394 392
-323 246 -726 412 -1115 457 -98 11 -344 20 -410 15z m420 -260 c738 -106
1359 -605 1623 -1304 77 -205 112 -368 127 -594 19 -289 -29 -606 -131 -863
-42 -106 -141 -299 -189 -368 -22 -33 -56 -82 -75 -110 -97 -144 -295 -336
-483 -468 -125 -88 -375 -212 -522 -260 -517 -168 -1072 -127 -1552 114 -530
266 -914 738 -1068 1313 -82 308 -84 693 -5 1008 92 362 276 688 535 948 458
460 1102 676 1740 584z"/>
<path d="M2958 4536 c-106 -38 -179 -109 -219 -214 -23 -61 -22 -130 2 -332 5
-47 41 -404 79 -793 42 -417 76 -722 84 -740 44 -103 180 -136 263 -64 63 56
50 -37 179 1252 60 608 60 611 35 677 -41 107 -128 189 -227 217 -52 15 -151
13 -196 -3z"/>
<path d="M2950 2132 c-61 -23 -140 -105 -163 -167 -38 -109 -12 -229 67 -308
55 -55 110 -79 192 -85 62 -4 80 -1 127 21 71 32 122 83 154 153 21 47 25 67
21 127 -6 121 -71 214 -181 259 -54 22 -158 22 -217 0z"/>
</g>
</svg>
