<svg width="745" height="360" viewBox="0 0 745 360" fill="none" xmlns="http://www.w3.org/2000/svg">
<path d="M180 60.0043C213.134 60.0043 243.135 73.4368 264.85 95.1511C286.564 116.867 299.997 146.867 299.997 180.001C299.997 213.135 286.564 243.136 264.85 264.851C243.135 286.565 213.134 299.997 180 299.997C146.868 299.997 116.866 286.565 95.152 264.851C73.436 243.136 60.0052 213.135 60.0052 180.001C60.0052 146.867 73.436 116.867 95.152 95.1511C116.866 73.4368 146.868 60.0043 180 60.0043V60.0043Z" fill="#41A2DB"/>
<path d="M180 60.0043C213.134 60.0043 243.135 73.4368 264.85 95.1511C286.564 116.867 299.997 146.867 299.997 180.001C299.997 213.135 286.564 243.136 264.85 264.851C243.135 286.565 213.134 299.997 180 299.997C146.868 299.997 116.866 286.565 95.152 264.851C73.436 243.136 60.0052 213.135 60.0052 180.001C60.0052 146.867 73.436 116.867 95.152 95.1511C116.866 73.4368 146.868 60.0043 180 60.0043V60.0043Z" fill="#41A2DB"/>
<path d="M180 276.705C233.408 276.705 276.705 233.409 276.705 180.001C276.705 126.592 233.408 83.2964 180 83.2964C126.592 83.2964 83.2955 126.592 83.2955 180.001C83.2955 233.409 126.592 276.705 180 276.705Z" fill="#2C7BB7"/>
<path d="M180 229.474C207.323 229.474 229.473 207.324 229.473 180.001C229.473 152.677 207.323 130.527 180 130.527C152.677 130.527 130.527 152.677 130.527 180.001C130.527 207.324 152.677 229.474 180 229.474Z" fill="#1C5793"/>
<path d="M351 226.222L351.13 132.625H366.989V189.823L392.663 156.024H412.228L384.994 191.123L414.568 226.222H393.833L366.989 192.423V226.222H351Z" fill="#2C2F3B"/>
<path d="M422.379 145.364V131H438.043V145.364H422.379ZM422.379 226.222V156.024H438.043V226.222H422.379Z" fill="#2C2F3B"/>
<path d="M498.656 226.222C494.02 227.088 489.47 227.456 485.007 227.326C480.587 227.24 476.622 226.438 473.112 224.922C469.602 223.362 466.937 220.913 465.118 217.577C463.514 214.544 462.669 211.445 462.583 208.282C462.496 205.119 462.453 201.544 462.453 197.558V136.525H478.052V196.648C478.052 199.464 478.074 201.934 478.117 204.057C478.204 206.181 478.659 207.914 479.482 209.257C481.042 211.857 483.534 213.309 486.957 213.612C490.38 213.915 494.28 213.742 498.656 213.092V226.222ZM449.713 168.309V156.024H498.656V168.309H449.713Z" fill="#2C2F3B"/>
<path d="M533.38 228.171C528.31 228.171 524.021 227.218 520.511 225.312C517.001 223.362 514.336 220.783 512.516 217.577C510.739 214.37 509.851 210.839 509.851 206.982C509.851 203.602 510.414 200.569 511.541 197.883C512.668 195.153 514.401 192.813 516.741 190.863C519.081 188.87 522.114 187.245 525.841 185.988C528.657 185.078 531.95 184.255 535.72 183.518C539.533 182.781 543.65 182.11 548.07 181.503C552.533 180.853 557.191 180.16 562.044 179.423L556.454 182.608C556.498 177.755 555.414 174.18 553.205 171.883C550.995 169.587 547.268 168.439 542.025 168.439C538.862 168.439 535.807 169.175 532.86 170.649C529.914 172.122 527.855 174.657 526.685 178.253L512.386 173.768C514.119 167.832 517.412 163.065 522.266 159.469C527.162 155.872 533.749 154.074 542.025 154.074C548.265 154.074 553.746 155.092 558.469 157.129C563.236 159.166 566.767 162.502 569.064 167.139C570.321 169.609 571.079 172.143 571.339 174.743C571.599 177.3 571.729 180.095 571.729 183.128V226.222H558.014V211.012L560.289 213.482C557.126 218.552 553.421 222.278 549.175 224.662C544.971 227.001 539.707 228.171 533.38 228.171ZM536.5 215.692C540.053 215.692 543.087 215.064 545.6 213.807C548.113 212.55 550.106 211.012 551.58 209.192C553.096 207.372 554.114 205.661 554.634 204.057C555.458 202.064 555.913 199.789 555.999 197.233C556.129 194.633 556.194 192.531 556.194 190.928L561.004 192.358C556.281 193.094 552.23 193.744 548.85 194.308C545.47 194.871 542.567 195.413 540.14 195.933C537.713 196.409 535.568 196.951 533.705 197.558C531.885 198.208 530.347 198.966 529.09 199.832C527.834 200.699 526.859 201.696 526.166 202.822C525.516 203.949 525.191 205.271 525.191 206.787C525.191 208.52 525.624 210.059 526.49 211.402C527.357 212.702 528.614 213.742 530.26 214.522C531.95 215.302 534.03 215.692 536.5 215.692Z" fill="#2C2F3B"/>
<path d="M622.384 228.171C615.538 228.171 609.796 226.546 605.16 223.297C600.523 220.047 597.035 215.627 594.695 210.037C592.355 204.404 591.185 198.099 591.185 191.123C591.185 184.06 592.355 177.733 594.695 172.143C597.035 166.554 600.458 162.156 604.965 158.949C609.515 155.699 615.126 154.074 621.799 154.074C628.429 154.074 634.171 155.699 639.024 158.949C643.92 162.156 647.712 166.554 650.398 172.143C653.085 177.69 654.428 184.016 654.428 191.123C654.428 198.143 653.107 204.447 650.463 210.037C647.82 215.627 644.094 220.047 639.284 223.297C634.474 226.546 628.841 228.171 622.384 228.171ZM588.521 226.222V132.625H604.315V176.953H602.365V226.222H588.521ZM619.979 214.132C624.053 214.132 627.411 213.114 630.054 211.077C632.697 209.04 634.647 206.289 635.904 202.822C637.204 199.312 637.854 195.413 637.854 191.123C637.854 186.876 637.204 183.02 635.904 179.553C634.604 176.043 632.589 173.27 629.859 171.234C627.129 169.154 623.663 168.114 619.459 168.114C615.473 168.114 612.223 169.089 609.71 171.039C607.197 172.945 605.333 175.632 604.12 179.098C602.95 182.521 602.365 186.53 602.365 191.123C602.365 195.673 602.95 199.681 604.12 203.147C605.333 206.614 607.218 209.322 609.775 211.272C612.375 213.179 615.776 214.132 619.979 214.132Z" fill="#2C2F3B"/>
<path d="M168.658 250.66C166.888 240.129 161.61 230.6 153.92 223.057C144.907 214.217 132.598 208.097 118.719 206.241L115.017 205.747V145.633C111.138 145.261 104.596 144.744 97.0324 144.595V221.311C114.292 221.544 127.996 223.269 139.221 227.578C151.032 232.115 159.924 239.4 167.022 250.616L168.658 250.66ZM159.863 217.012C167.402 224.409 172.95 233.475 175.75 243.533V141.996C169.674 133.312 161.542 125.867 151.952 120.202C143.476 115.192 133.858 111.581 123.518 109.744V198.433C137.768 201.072 150.395 207.723 159.863 217.012V217.012ZM115.017 137.105V100.013L119.783 100.594C133.11 102.226 145.506 106.538 156.27 112.896C167.314 119.424 176.648 128.132 183.521 138.347L184.251 139.434V259.542L162.137 258.962L160.949 256.948C154.671 246.306 146.801 239.553 136.199 235.482C125.221 231.268 111.122 229.782 92.7828 229.782H88.5314V136.049H92.7828C101.87 136.049 110.1 136.651 115.017 137.105V137.105Z" fill="white"/>
<path d="M184.251 243.533C187.052 233.475 192.601 224.409 200.14 217.012C209.608 207.723 222.235 201.072 236.484 198.433V109.744C226.146 111.581 216.528 115.192 208.051 120.202C198.461 125.867 190.329 133.312 184.251 141.996V243.533V243.533ZM206.084 223.057C198.394 230.6 193.116 240.129 191.343 250.66L192.98 250.616C200.079 239.4 208.972 232.115 220.783 227.578C232.004 223.269 245.71 221.544 262.971 221.311V144.595C255.406 144.744 248.864 145.261 244.986 145.633V205.747L241.283 206.241C227.403 208.097 215.095 214.217 206.084 223.057V223.057ZM244.986 104.811V137.105C249.904 136.651 258.133 136.049 267.221 136.049H271.472V229.782H267.221C248.879 229.782 234.781 231.268 223.804 235.482C213.202 239.553 205.331 246.306 199.055 256.948L197.868 258.962L175.75 259.542V139.434L176.483 138.347C183.356 128.132 192.69 119.424 203.734 112.896C214.496 106.538 226.894 102.226 240.22 100.594L244.986 100.013V104.811V104.811Z" fill="white"/>
<path d="M198.039 267.785H162.008V276.314H198.039V267.785Z" fill="white"/>
</svg>
